<?xml version="1.0" encoding="UTF-8"?>
<svg id="Layer_2" data-name="Layer 2" xmlns="http://www.w3.org/2000/svg" viewBox="0 0 70.87 70.87">
  <defs>
    <style>
      .cls-1 {
        fill: #9884bd;
      }

      .cls-2 {
        fill: #414042;
      }
    </style>
  </defs>
  <g id="Layer_1-2" data-name="Layer 1">
    <g>
      <rect class="cls-2" width="70.87" height="70.87"/>
      <circle class="cls-1" cx="47.21" cy="29.18" r="15.34"/>
      <circle class="cls-2" cx="46.26" cy="30.1" r="14.82"/>
      <circle class="cls-2" cx="47.21" cy="29.18" r="13.19"/>
      <path class="cls-1" d="m47.71,19.87c-.13-.7-.27-1.48-.43-2.33-.01-.07-.12-.07-.14,0-.16.85-.3,1.62-.43,2.32-.67,3.66-1,5.5-2.16,6.65-1.15,1.15-2.98,1.49-6.63,2.15h-.02c-.7.13-1.48.27-2.33.43-.07.01-.07.12,0,.14.85.16,1.62.3,2.33.43,3.66.67,5.5,1,6.65,2.16,1.15,1.15,1.49,2.98,2.15,6.63v.02c.13.7.27,1.48.43,2.33.01.07.12.07.14,0,.16-.85.3-1.62.43-2.33.67-3.66,1-5.5,2.16-6.65,1.15-1.15,2.98-1.49,6.63-2.15h.02c.7-.13,1.48-.27,2.33-.43.07-.01.07-.12,0-.14-.85-.16-1.62-.3-2.33-.43-3.66-.67-5.5-1-6.65-2.16-1.15-1.15-1.49-2.98-2.15-6.63v-.02"/>
      <path class="cls-2" d="m47.45,24.78c-.06-.33-.13-.7-.2-1.1,0-.04-.06-.03-.06,0-.08.4-.14.77-.2,1.1-.32,1.73-.47,2.6-1.02,3.14-.54.54-1.41.7-3.13,1.02h0c-.33.06-.7.13-1.1.21-.04,0-.03.06,0,.06.4.08.77.14,1.1.2,1.73.32,2.6.47,3.14,1.02.54.54.7,1.41,1.02,3.13h0c.06.34.13.71.2,1.11,0,.04.06.03.06,0,.08-.4.14-.77.2-1.1.32-1.73.47-2.6,1.02-3.14.54-.54,1.41-.7,3.13-1.02h0c.33-.06.7-.13,1.1-.21.04,0,.03-.06,0-.06-.4-.08-.77-.14-1.1-.2-1.73-.32-2.6-.47-3.14-1.02-.54-.54-.7-1.41-1.02-3.13h0"/>
      <path class="cls-1" d="m28.12,7.53l-.36,39.47c-.67,2.44-1.8,4.35-3.39,5.69-.75.63-1.35.94-2.1,1.34-.51.27-1.1.57-1.76,1-1.11.72-2.14,1.59-3.07,2.61l.2-24.49.13-15.58c1.08-4.42,3.06-7.26,6.06-8.69l4.29-1.35m21.68,43.01l-.61,1-3.28,5.37c-.96,1.58-2.27,2.93-3.78,3.9-2.47,1.59-4.98,1.92-6.66,1.92-.23,0-.44,0-.6-.01-.37-.02-.7-.03-1.03-.03-.44,0-.86.01-1.37.03-.72.02-1.62.05-3.01.05-.06,0-.12,0-.19,0,1-.78,1.94-1.64,2.78-2.57,2.62-2.9,4-6,4.73-8.43l10.34-.98,2.68-.25M30.15,4.79c-2.35.74-4.7,1.48-7.04,2.22-3.67,1.69-6.11,5.13-7.33,10.31-.13,15.81-.26,31.62-.39,47.43,1.87-4.53,4.29-6.81,6.21-8.05,1.52-.98,2.58-1.23,4.07-2.49,2.49-2.11,3.57-4.92,4.09-6.95l.38-42.48h0Zm23.45,43.38h-.33.33Zm0,0c-6.13.58-12.26,1.16-18.39,1.74-.4,1.78-1.49,5.48-4.63,8.95-3.7,4.09-8.07,5.46-9.83,5.91.97,0,2.25-.02,3.77-.02,1.14,0,2.43,0,3.82.02.4,0,.78,0,1.12,0,2.36,0,3.34-.08,4.38-.08.29,0,.59,0,.93.02.19,0,.43.02.7.02,1.66,0,4.7-.28,7.74-2.24,2.36-1.52,3.72-3.41,4.41-4.55,1.99-3.26,3.99-6.52,5.98-9.77h0Z"/>
    </g>
  </g>
</svg>